<svg xmlns="http://www.w3.org/2000/svg" viewBox="0 0 2109.79 333.89"><defs><style>.cls-1{fill:none;}.cls-2{fill:#29abe2;}</style></defs><g id="Layer_2" data-name="Layer 2"><g id="Layer_1-2" data-name="Layer 1"><path d="M158.14,45.43q5.31,5.32,5.31,13.75V252.32a18.72,18.72,0,0,1-5.31,13.59,18,18,0,0,1-13.44,5.47,17.64,17.64,0,0,1-13.28-5.31A19.6,19.6,0,0,1,126,252.63q-7.82,9.08-21.1,15.47a63.63,63.63,0,0,1-28,6.41,71.38,71.38,0,0,1-39.06-11.1Q20.3,252.32,10.16,232.63T0,187.94q0-25,10-44.85t27.35-30.94a69.63,69.63,0,0,1,38.28-11.09,72.52,72.52,0,0,1,28.13,5.47A74,74,0,0,1,126,120.44V59.18a18.7,18.7,0,0,1,5.31-13.59,17.92,17.92,0,0,1,13.44-5.47A18.25,18.25,0,0,1,158.14,45.43ZM114.7,225.29q12.81-14.85,12.81-37.35t-12.81-37.5q-12.83-15-33.13-15-20,0-32.82,15t-12.81,37.5q0,22.5,12.66,37.35t33,14.84Q101.88,240.13,114.7,225.29Z"/><path d="M205.32,80.43Q200.94,77,201,68.24V62.31q0-8.75,4.69-12.19t15-3.44q10.94,0,15.31,3.44t4.38,12.19v5.93q0,9.08-4.54,12.35t-15.47,3.28Q209.7,83.87,205.32,80.43Zm28.75,185.48a19.23,19.23,0,0,1-26.87,0,18.68,18.68,0,0,1-5.31-13.59V123.25a18.72,18.72,0,0,1,5.31-13.6,19.26,19.26,0,0,1,26.87,0,18.73,18.73,0,0,1,5.32,13.6V252.32A18.69,18.69,0,0,1,234.07,265.91Z"/><path d="M265.32,236.07q0-8.13,8.13-13.75a16.5,16.5,0,0,1,9.06-2.81q6.57,0,12.5,5.93a65.9,65.9,0,0,0,19.54,14.38q10.14,4.68,24.53,4.69,24.38-.94,24.38-18.44,0-9.06-8.29-13.75t-25.78-9.38a222,222,0,0,1-29.53-10,52.09,52.09,0,0,1-19.69-15.16q-8.28-10.16-8.28-27.34a41.39,41.39,0,0,1,8.59-26.1A56.7,56.7,0,0,1,303,107.15a72.84,72.84,0,0,1,29.54-6.09A90.69,90.69,0,0,1,364.39,107q15.94,5.94,25,17.5a17.41,17.41,0,0,1,4.06,11.25,14.49,14.49,0,0,1-5.94,11.87,15.71,15.71,0,0,1-10,3.44,15.19,15.19,0,0,1-11.25-4.37,39.81,39.81,0,0,0-14.53-10.94,48,48,0,0,0-20.16-4.06q-23.76,0-23.75,17.19A14.69,14.69,0,0,0,312.2,160a29.86,29.86,0,0,0,11.1,6.56q6.72,2.34,18.9,5.79A206.12,206.12,0,0,1,370.33,182a48.34,48.34,0,0,1,19.07,15.32q7.8,10.31,7.81,27.19a41.7,41.7,0,0,1-9.06,26.72,57.4,57.4,0,0,1-23.29,17.34,75.13,75.13,0,0,1-29.22,5.94,105.94,105.94,0,0,1-38.44-6.88,63.8,63.8,0,0,1-29.06-22.19A15.14,15.14,0,0,1,265.32,236.07Z"/><path d="M579.72,106.37Q585,111.7,585,120.12v132.2a18.72,18.72,0,0,1-5.31,13.59,17.94,17.94,0,0,1-13.44,5.47A17.66,17.66,0,0,1,553,266.07a19.6,19.6,0,0,1-5.47-13.44q-7.81,9.08-21.1,15.47a63.63,63.63,0,0,1-28,6.41,71.4,71.4,0,0,1-39.06-11.1q-17.5-11.09-27.66-30.78t-10.16-44.69q0-25,10-44.85t27.35-30.94a69.63,69.63,0,0,1,38.28-11.09,72.52,72.52,0,0,1,28.13,5.47,74,74,0,0,1,22.19,13.91v-.32a18.75,18.75,0,0,1,5.31-13.59,18,18,0,0,1,13.44-5.47A18.23,18.23,0,0,1,579.72,106.37ZM536.28,225.29q12.81-14.85,12.81-37.35t-12.81-37.5q-12.82-15-33.13-15-20,0-32.81,15t-12.82,37.5q0,22.5,12.66,37.35t33,14.84Q523.46,240.13,536.28,225.29Z"/><path d="M751.29,112.15A77.93,77.93,0,0,1,779,142.94q10.14,19.68,10.15,44.69t-10,44.84q-10,19.86-27.34,30.94a69.61,69.61,0,0,1-38.29,11.1,66.88,66.88,0,0,1-28.28-6.1,74.86,74.86,0,0,1-22-14.84v1.88A18.75,18.75,0,0,1,657.84,269a18,18,0,0,1-13.43,5.47A18.2,18.2,0,0,1,631,269.2q-5.33-5.31-5.32-13.75V59.18A18.7,18.7,0,0,1,631,45.59a19.23,19.23,0,0,1,26.87,0,18.75,18.75,0,0,1,5.32,13.59V124.5q7.5-9.37,20.94-16.41a59.8,59.8,0,0,1,28.12-7A71.51,71.51,0,0,1,751.29,112.15Zm-10.94,113q12.81-15,12.81-37.5t-12.65-37.35q-12.66-14.84-33-14.84t-33.12,14.84q-12.82,14.85-12.82,37.35t12.82,37.5q12.81,15,33.12,15Q727.54,240.13,740.35,225.13Z"/><path d="M821.6,80.43q-4.38-3.44-4.37-12.19V62.31q0-8.75,4.68-12.19t15-3.44q10.94,0,15.32,3.44t4.37,12.19v5.93q0,9.08-4.53,12.35T836.6,83.87Q826,83.87,821.6,80.43Zm28.75,185.48a19.23,19.23,0,0,1-26.87,0,18.69,18.69,0,0,1-5.32-13.59V123.25a18.73,18.73,0,0,1,5.32-13.6,19.26,19.26,0,0,1,26.87,0,18.77,18.77,0,0,1,5.32,13.6V252.32A18.73,18.73,0,0,1,850.35,265.91Z"/><path d="M929.26,265.91a18.45,18.45,0,0,1-13.59,5.47,17.56,17.56,0,0,1-13.13-5.47,18.72,18.72,0,0,1-5.31-13.59V59.18a18.69,18.69,0,0,1,19.06-19.06,17.58,17.58,0,0,1,13.13,5.47,18.74,18.74,0,0,1,5.31,13.59V252.32A18.42,18.42,0,0,1,929.26,265.91Z"/><path d="M979.73,80.43q-4.38-3.44-4.37-12.19V62.31q0-8.75,4.68-12.19t15-3.44q10.94,0,15.31,3.44t4.37,12.19v5.93q0,9.08-4.53,12.35t-15.47,3.28Q984.11,83.87,979.73,80.43Zm28.75,185.48a19.23,19.23,0,0,1-26.87,0,18.69,18.69,0,0,1-5.32-13.59V123.25a18.73,18.73,0,0,1,5.32-13.6,19.26,19.26,0,0,1,26.87,0,18.77,18.77,0,0,1,5.32,13.6V252.32A18.73,18.73,0,0,1,1008.48,265.91Z"/><path d="M1140.83,240.29q3.6,4.22,3.6,11.09,0,8.44-9.22,14.22a38.28,38.28,0,0,1-20.78,5.78q-19.4,0-32.66-8.28t-13.29-35.16V141.69h-14.37a17.09,17.09,0,0,1-17.5-17.5,16.09,16.09,0,0,1,5-12,17.28,17.28,0,0,1,12.5-4.84h14.37v-20a18.69,18.69,0,0,1,19.07-19.07,17.59,17.59,0,0,1,13.12,5.47,18.77,18.77,0,0,1,5.32,13.6v20h22.19a17.09,17.09,0,0,1,17.5,17.5,16.06,16.06,0,0,1-5,12,17.22,17.22,0,0,1-12.5,4.85H1106v84.69q0,6.57,3.44,9.53c2.29,2,5.41,3,9.37,3a26.55,26.55,0,0,0,6.88-1.25,18.67,18.67,0,0,1,7.18-1.56Q1137.24,236.07,1140.83,240.29Z"/><path d="M1317.56,109.65a18.77,18.77,0,0,1,5.32,13.6V256.07q0,40.62-21.88,59.22t-58.44,18.6a142.39,142.39,0,0,1-21.72-1.72,81.89,81.89,0,0,1-18-4.53q-15.31-6.57-15.32-18.13a16.23,16.23,0,0,1,.94-5A19.37,19.37,0,0,1,1194.9,294a15.48,15.48,0,0,1,9.84-3.59,18.84,18.84,0,0,1,5.94.93q2.19.94,7.66,3.13a77.54,77.54,0,0,0,11.56,3.59,56,56,0,0,0,12.66,1.41q22.18,0,32.66-9.53t10.47-32.66v-3.13q-16.26,20.32-50.63,20.32-16.26,0-28.76-7.66a51.68,51.68,0,0,1-19.37-21.25q-6.89-13.59-6.88-31.09V123.25a18.73,18.73,0,0,1,5.32-13.6,19.26,19.26,0,0,1,26.87,0,18.77,18.77,0,0,1,5.32,13.6v80q0,19.69,8.59,28.29t25.16,8.59q16.25,0,25.16-9.53t8.9-27.35v-80a18.73,18.73,0,0,1,5.32-13.6,19.26,19.26,0,0,1,26.87,0Z"/><path d="M1438.51,236.07q0-8.13,8.12-13.75a16.5,16.5,0,0,1,9.06-2.81q6.57,0,12.51,5.93a65.86,65.86,0,0,0,19.53,14.38q10.15,4.68,24.53,4.69,24.38-.94,24.38-18.44,0-9.06-8.28-13.75t-25.79-9.38a222,222,0,0,1-29.53-10,52.09,52.09,0,0,1-19.69-15.16q-8.28-10.16-8.28-27.34a41.39,41.39,0,0,1,8.59-26.1,56.7,56.7,0,0,1,22.5-17.19,72.84,72.84,0,0,1,29.54-6.09,90.69,90.69,0,0,1,31.87,5.94q15.95,5.94,25,17.5a17.41,17.41,0,0,1,4.06,11.25,14.49,14.49,0,0,1-5.94,11.87,15.71,15.71,0,0,1-10,3.44,15.21,15.21,0,0,1-11.25-4.37,39.73,39.73,0,0,0-14.53-10.94,48,48,0,0,0-20.16-4.06q-23.76,0-23.75,17.19a14.69,14.69,0,0,0,4.37,11.09,29.94,29.94,0,0,0,11.1,6.56q6.72,2.34,18.91,5.79a206.41,206.41,0,0,1,28.12,9.68,48.34,48.34,0,0,1,19.07,15.32q7.8,10.31,7.81,27.19a41.7,41.7,0,0,1-9.06,26.72A57.4,57.4,0,0,1,1538,268.57a75.13,75.13,0,0,1-29.22,5.94,105.94,105.94,0,0,1-38.44-6.88,63.8,63.8,0,0,1-29.06-22.19A15.14,15.14,0,0,1,1438.51,236.07Z"/><path d="M2097.6,120q12.2,18.92,12.19,52.35v80a18.72,18.72,0,0,1-5.31,13.59,19.25,19.25,0,0,1-26.88,0,18.72,18.72,0,0,1-5.31-13.59v-80q0-17.19-7.19-27t-24.69-9.84q-18.12,0-28.44,10.47t-10.31,26.41v80a18.72,18.72,0,0,1-5.31,13.59,19.25,19.25,0,0,1-26.88,0,18.72,18.72,0,0,1-5.31-13.59V123.25a18.76,18.76,0,0,1,5.31-13.6,19.27,19.27,0,0,1,26.88,0,18.76,18.76,0,0,1,5.31,13.6v5.31a75.47,75.47,0,0,1,22-19.37,57.06,57.06,0,0,1,29.85-8.13Q2085.42,101.06,2097.6,120Z"/><path class="cls-1" d="M1909.26,219.32l1.08.18Z"/><path class="cls-1" d="M1907.73,219.2c.36,0,.71,0,1.06.07C1908.44,219.24,1908.09,219.21,1907.73,219.2Z"/><path class="cls-1" d="M1910.7,219.57a13.3,13.3,0,0,1,1.41.38A13.3,13.3,0,0,0,1910.7,219.57Z"/><path class="cls-1" d="M1912.4,220.05q.55.18,1.11.42Q1913,220.23,1912.4,220.05Z"/><path class="cls-1" d="M1913.94,220.66c.33.15.66.31,1,.48C1914.6,221,1914.27,220.81,1913.94,220.66Z"/><path class="cls-1" d="M1907.15,219.18l-.4,0c.19,0,.38,0,.58,0Z"/><path class="cls-1" d="M1896.16,223.38l.5-.42Z"/><path class="cls-1" d="M1894.83,224.71c.13-.15.27-.28.4-.42C1895.1,224.43,1895,224.56,1894.83,224.71Z"/><path class="cls-1" d="M1897.64,222.21c.17-.12.33-.24.51-.35C1898,222,1897.81,222.09,1897.64,222.21Z"/><path class="cls-1" d="M1904.85,219.36l.64-.08Z"/><path class="cls-1" d="M1903.07,219.7l.61-.13Z"/><path class="cls-1" d="M1899.38,221.13c.11-.06.22-.13.33-.18C1899.6,221,1899.49,221.07,1899.38,221.13Z"/><path class="cls-1" d="M1901.36,220.23l.43-.14Z"/><path class="cls-1" d="M1852.27,244.56h0c-21.16,0-39.09-17.22-44.9-40.8h0C1813.18,227.34,1831.11,244.56,1852.27,244.56Z"/><path d="M1920.64,245.15c-14.88,21.2-38.52,32.4-68.37,32.4h0c29.85,0,53.49-11.2,68.37-32.4a16.49,16.49,0,0,0-4-23,14.73,14.73,0,0,0-1.29-.82,14.73,14.73,0,0,1,1.29.82A16.49,16.49,0,0,1,1920.64,245.15Z"/><path class="cls-1" d="M1718.34,170.77c-5.81-23.58-23.74-40.8-44.9-40.8-15.22,0-28.77,8.92-37.34,22.7l-4.85,18.1Z"/><path class="cls-1" d="M1852.27,130c-21.16,0-39.09,17.22-44.9,40.8h87.31L1890,153.32C1881.47,139.17,1867.74,130,1852.27,130Z"/><path class="cls-2" d="M1604.79,141.21q1.43-2.7,3-5.28l.12-.2q1.55-2.5,3.22-4.87a.64.64,0,0,0,.1-.13,88.31,88.31,0,0,1,7.53-9.19l.09-.09a82.26,82.26,0,0,1,8.65-8l0,0a79.91,79.91,0,0,1,9.63-6.58h0l.12-.07c1.28-.74,2.58-1.43,3.89-2.1l.39-.18c1.29-.64,2.6-1.25,3.93-1.82l.14-.06c1.37-.57,2.75-1.11,4.15-1.6l.14,0,15.32-57.22,27.36-9.1A17.79,17.79,0,0,0,1681.37.91L1644.91,13a17.75,17.75,0,0,0-11.57,12.28l-36.46,136.26c-.05.17-.08.35-.12.53a96.57,96.57,0,0,1,8-20.9Z"/><path class="cls-2" d="M1888.87,107.06a85.76,85.76,0,0,1,32.77,35.54,97.92,97.92,0,0,1,9.48,30.54,17.72,17.72,0,0,0-.54-5.89L1894.12,31a17.8,17.8,0,0,0-11.58-12.28L1846.08,6.59a17.79,17.79,0,1,0-11.23,33.77l27.37,9.09L1876,101.08c1.47.52,2.91,1.08,4.34,1.69A76,76,0,0,1,1888.87,107.06Z"/><path class="cls-1" d="M1876,101.08c-1.52-.54-3.07-1-4.63-1.47,1.56.44,3.11.93,4.63,1.47Z"/><path class="cls-2" d="M1888.87,107.06a76,76,0,0,0-8.5-4.29,76,76,0,0,1,8.5,4.29Z"/><path class="cls-2" d="M1880.37,102.77c-1.43-.61-2.87-1.17-4.34-1.69h0C1877.5,101.6,1878.94,102.16,1880.37,102.77Z"/><path d="M1931.12,173.14a97.92,97.92,0,0,0-9.48-30.54,85.76,85.76,0,0,0-32.77-35.54h0a76,76,0,0,0-8.5-4.29c-1.43-.61-2.87-1.17-4.34-1.69s-3.07-1-4.63-1.47A70.63,70.63,0,0,0,1852.27,97a72,72,0,0,0-36.59,10.08q-1.32.76-2.61,1.59a81.47,81.47,0,0,0-14.41,11.76l-.06,0a93.92,93.92,0,0,0-24.83,50.31H1752c-.09-.56-.17-1.12-.27-1.68a97.16,97.16,0,0,0-4.66-16.93c-1-2.7-2.13-5.34-3.37-7.89a91.65,91.65,0,0,0-8.6-14.4,87.6,87.6,0,0,0-10.83-12.25,81.55,81.55,0,0,0-9.4-7.55,77.54,77.54,0,0,0-6.78-4.17,72,72,0,0,0-34.6-8.92c-1.46,0-2.9.06-4.34.15l-1,.07c-1.43.11-2.86.24-4.27.44l-.17,0c-1.39.2-2.76.44-4.12.71l-.78.16c-1.43.3-2.84.64-4.24,1l-.13,0c-1.38.39-2.74.82-4.1,1.29l-.37.12-.14,0c-1.4.49-2.78,1-4.15,1.6l-.14.06c-1.33.57-2.64,1.18-3.93,1.82l-.39.18c-1.31.67-2.61,1.36-3.89,2.1l-.12.07h0a79.91,79.91,0,0,0-9.63,6.58l0,0a82.26,82.26,0,0,0-8.65,8l-.09.09a88.31,88.31,0,0,0-7.53,9.19.64.64,0,0,1-.1.13q-1.68,2.37-3.22,4.87l-.12.2q-1.59,2.58-3,5.28h0a96.57,96.57,0,0,0-8,20.9,100.66,100.66,0,0,0-3.18,25.16,102.25,102.25,0,0,0,1.62,18.17,95.36,95.36,0,0,0,16.64,39.22,86.69,86.69,0,0,0,7.93,9.41,81.48,81.48,0,0,0,15.63,12.57,72.37,72.37,0,0,0,38,10.91c1.71,0,3.41,0,5.08-.11q5-.22,9.79-.89a89.17,89.17,0,0,0,18-4.4,72.73,72.73,0,0,0,31.83-22.21,16.31,16.31,0,0,0,3.48-7.32,16.5,16.5,0,0,0-5.68-15.9c-.41-.34-.84-.65-1.27-.95l-.44-.27c-.3-.19-.6-.38-.9-.54l-.53-.27-.87-.41-.57-.23-.87-.31-.58-.17c-.3-.09-.61-.16-.91-.23l-.57-.12c-.33-.06-.66-.1-1-.14l-.5-.07q-.69-.06-1.38-.06h-.23c-.52,0-1,0-1.57.08l-.55.08c-.38,0-.75.1-1.11.18s-.43.1-.64.16-.67.17-1,.27-.44.15-.66.23-.63.24-.94.37-.43.19-.65.3-.6.31-.9.47-.41.23-.61.36-.59.39-.88.6-.37.26-.54.4-.61.5-.9.77l-.44.38c-.42.42-.83.86-1.22,1.32-8.7,10.53-21.55,15.64-39.29,15.64-21.16,0-39.09-17.22-44.9-40.8h145.23c6.88,41.93,39.45,73.79,78.5,73.79,29.85,0,53.49-11.2,68.37-32.4a16.49,16.49,0,0,0-4-23,14.73,14.73,0,0,0-1.29-.82l-.4-.22c-.32-.17-.65-.33-1-.48l-.43-.19q-.55-.24-1.11-.42l-.29-.1a13.3,13.3,0,0,0-1.41-.38l-.36-.07-1.08-.18-.47,0c-.35,0-.7-.06-1.06-.07h-.4c-.2,0-.39,0-.58,0-.42,0-.85,0-1.26.08l-.64.08c-.39,0-.78.12-1.17.2l-.61.14c-.43.11-.86.24-1.28.39l-.43.14a17.16,17.16,0,0,0-1.65.72c-.11.05-.22.12-.33.18-.42.23-.83.47-1.23.73-.18.11-.34.23-.51.35-.34.24-.66.48-1,.75l-.5.42c-.32.29-.63.59-.93.91-.13.14-.27.27-.4.42a15.86,15.86,0,0,0-1.19,1.49c-8.68,12.35-22.21,18.36-41.37,18.36-21.16,0-39.09-17.22-44.9-40.8h108.28a16.47,16.47,0,0,0,11.66-4.83,16.2,16.2,0,0,0,2-2.44,16.41,16.41,0,0,0,2.82-9.22A101.07,101.07,0,0,0,1931.12,173.14Zm-299.87-2.37h-2.71a62.75,62.75,0,0,1,7.56-18.1c8.57-13.78,22.12-22.7,37.34-22.7,21.16,0,39.09,17.22,44.9,40.8Zm176.12,0c5.81-23.58,23.74-40.8,44.9-40.8,15.47,0,29.2,9.2,37.74,23.35a62.75,62.75,0,0,1,7.16,17.45h-89.8Z"/></g></g></svg>